<svg width="24" height="24" viewBox="0 0 24 24" fill="none" xmlns="http://www.w3.org/2000/svg">
<path d="M5.02734 8.76855C4.98633 8.93262 4.99805 9.0498 5.0625 9.12012C5.13281 9.18457 5.25293 9.21094 5.42285 9.19922C5.90918 9.16992 6.44238 9.14062 7.02246 9.11133C7.60254 9.08203 8.27637 9.05859 9.04395 9.04102C9.81738 9.02344 10.7344 9.01465 11.7949 9.01465C12.8555 9.01465 13.7695 9.02344 14.5371 9.04102C15.3105 9.05859 15.9873 9.08203 16.5674 9.11133C17.1533 9.14062 17.6895 9.16992 18.1758 9.19922C18.3457 9.21094 18.4629 9.18457 18.5273 9.12012C18.5977 9.0498 18.6123 8.93262 18.5713 8.76855C18.4951 8.45215 18.4014 8.11523 18.29 7.75781C18.1846 7.39453 18.0732 7.06055 17.9561 6.75586C17.8447 6.44531 17.7393 6.20801 17.6396 6.04395C17.5166 5.83887 17.3848 5.68652 17.2441 5.58691C17.1035 5.4873 16.9131 5.41992 16.6729 5.38477C16.3447 5.33203 15.7881 5.29395 15.0029 5.27051C14.2236 5.24707 13.1543 5.23535 11.7949 5.23535C10.4355 5.23535 9.36621 5.25 8.58691 5.2793C7.80762 5.30273 7.25098 5.33789 6.91699 5.38477C6.68262 5.41992 6.49219 5.4873 6.3457 5.58691C6.19922 5.68652 6.06738 5.83887 5.9502 6.04395C5.85645 6.21387 5.75098 6.4541 5.63379 6.76465C5.5166 7.06934 5.40234 7.40039 5.29102 7.75781C5.17969 8.11523 5.0918 8.45215 5.02734 8.76855ZM5.45801 15.2637C5.8623 15.2637 6.19922 15.1289 6.46875 14.8594C6.73828 14.584 6.87305 14.2471 6.87305 13.8486C6.87305 13.4443 6.73828 13.1074 6.46875 12.8379C6.19922 12.5684 5.8623 12.4336 5.45801 12.4336C5.05371 12.4336 4.7168 12.5684 4.44727 12.8379C4.17773 13.1074 4.04297 13.4443 4.04297 13.8486C4.04297 14.2471 4.17773 14.584 4.44727 14.8594C4.7168 15.1289 5.05371 15.2637 5.45801 15.2637ZM9.47461 14.9121H14.124C14.4229 14.9121 14.666 14.8184 14.8535 14.6309C15.041 14.4434 15.1348 14.1973 15.1348 13.8926C15.1348 13.5938 15.041 13.3506 14.8535 13.1631C14.666 12.9756 14.4229 12.8818 14.124 12.8818H9.47461C9.16992 12.8818 8.92383 12.9756 8.73633 13.1631C8.54883 13.3506 8.45508 13.5938 8.45508 13.8926C8.45508 14.1973 8.54883 14.4434 8.73633 14.6309C8.92383 14.8184 9.16992 14.9121 9.47461 14.9121ZM18.1318 15.2637C18.5361 15.2637 18.873 15.1289 19.1426 14.8594C19.4121 14.584 19.5469 14.2471 19.5469 13.8486C19.5469 13.4443 19.4121 13.1074 19.1426 12.8379C18.873 12.5684 18.5361 12.4336 18.1318 12.4336C17.7334 12.4336 17.3994 12.5684 17.1299 12.8379C16.8604 13.1074 16.7256 13.4443 16.7256 13.8486C16.7256 14.2471 16.8604 14.584 17.1299 14.8594C17.3994 15.1289 17.7334 15.2637 18.1318 15.2637ZM11.7949 17.6367C11.0566 17.6367 10.2773 17.6279 9.45703 17.6104C8.63672 17.5928 7.83105 17.5693 7.04004 17.54C6.24902 17.5049 5.52246 17.4668 4.86035 17.4258C4.2041 17.3848 3.66797 17.3408 3.25195 17.2939C2.66016 17.2236 2.20312 17.0273 1.88086 16.7051C1.55859 16.3828 1.39746 15.9404 1.39746 15.3779V13.8311C1.39746 13.333 1.43262 12.8994 1.50293 12.5303C1.5791 12.1553 1.69629 11.8066 1.85449 11.4844C2.01855 11.1562 2.23828 10.8164 2.51367 10.4648L3.25195 9.50684C3.35742 8.97949 3.48633 8.45801 3.63867 7.94238C3.79102 7.42676 3.94043 6.96387 4.08691 6.55371C4.2334 6.14355 4.35938 5.83008 4.46484 5.61328C4.69922 5.11523 5.03613 4.71973 5.47559 4.42676C5.91504 4.12793 6.42773 3.94336 7.01367 3.87305C7.20703 3.84961 7.53516 3.8291 7.99805 3.81152C8.4668 3.79395 9.02637 3.7793 9.67676 3.76758C10.333 3.75586 11.0391 3.75 11.7949 3.75C12.5508 3.75 13.2539 3.75586 13.9043 3.76758C14.5605 3.77344 15.1201 3.78516 15.583 3.80273C16.0518 3.82031 16.3857 3.84375 16.585 3.87305C17.165 3.94922 17.6748 4.13379 18.1143 4.42676C18.5596 4.71973 18.8994 5.11523 19.1338 5.61328C19.2334 5.83008 19.3564 6.14355 19.5029 6.55371C19.6553 6.96387 19.8047 7.42676 19.9512 7.94238C20.1035 8.45801 20.2324 8.97949 20.3379 9.50684L21.085 10.4648C21.3545 10.8164 21.5713 11.1562 21.7354 11.4844C21.8994 11.8066 22.0166 12.1553 22.0869 12.5303C22.1572 12.8994 22.1924 13.333 22.1924 13.8311V15.3779C22.1924 15.9404 22.0312 16.3828 21.709 16.7051C21.3926 17.0273 20.9355 17.2236 20.3379 17.2939C19.9219 17.3408 19.3828 17.3848 18.7207 17.4258C18.0645 17.4668 17.3408 17.5049 16.5498 17.54C15.7588 17.5693 14.9531 17.5928 14.1328 17.6104C13.3125 17.6279 12.5332 17.6367 11.7949 17.6367ZM2.56641 20.0537C2.23242 20.0537 1.9541 19.9424 1.73145 19.7197C1.50879 19.4971 1.39746 19.2217 1.39746 18.8936V15.1055L4.76367 16.7051V18.8936C4.76367 19.2217 4.64941 19.4971 4.4209 19.7197C4.19824 19.9424 3.92285 20.0537 3.59473 20.0537H2.56641ZM19.9951 20.0537C19.667 20.0537 19.3916 19.9424 19.1689 19.7197C18.9463 19.4971 18.835 19.2217 18.835 18.8936V16.7051L22.1924 15.1055V18.8936C22.1924 19.2217 22.0811 19.4971 21.8584 19.7197C21.6357 19.9424 21.3604 20.0537 21.0322 20.0537H19.9951Z" fill="#212227"/>
</svg>
