<svg width="25" height="24" viewBox="0 0 25 24" fill="none" xmlns="http://www.w3.org/2000/svg">
<path fill-rule="evenodd" clip-rule="evenodd" d="M2.78926 12.816C3.07681 13.8186 3.84958 14.5914 5.39511 16.1369L7.22475 17.9665C9.91373 20.6555 11.2582 22 12.9289 22C14.5997 22 15.9442 20.6555 18.6331 17.9665C21.3221 15.2775 22.6666 13.933 22.6666 12.2623C22.6666 10.5916 21.3221 9.24711 18.6331 6.55812L16.8035 4.72848C15.258 3.18295 14.4852 2.41018 13.4826 2.12264C12.48 1.83509 11.4151 2.08083 9.28538 2.57231L8.0572 2.85574C6.26543 3.26922 5.36955 3.47597 4.75607 4.08944C4.14259 4.70292 3.93585 5.59881 3.52237 7.39057L3.23894 8.61875C2.74746 10.7485 2.50172 11.8134 2.78926 12.816ZM10.79 7.27098C11.5776 8.05856 11.5776 9.33549 10.79 10.1231C10.0024 10.9107 8.7255 10.9107 7.93792 10.1231C7.15033 9.33549 7.15033 8.05856 7.93792 7.27098C8.7255 6.48339 10.0024 6.48339 10.79 7.27098ZM19.7177 12.0511L12.7387 19.0303C12.4458 19.3232 11.971 19.3232 11.6781 19.0303C11.3852 18.7375 11.3851 18.2626 11.678 17.9697L18.657 10.9904C18.9499 10.6975 19.4248 10.6975 19.7177 10.9904C20.0106 11.2833 20.0106 11.7582 19.7177 12.0511Z" fill="#212227"/>
</svg>
