<svg width="161" height="29" viewBox="0 0 161 29" fill="none" xmlns="http://www.w3.org/2000/svg">
<g clip-path="url(#clip0_5424_6702)">
<path d="M44.5684 24.1875H0.821533V24.5824H44.5684V24.1875Z" fill="#F6511D"/>
<path d="M45.4471 25.0947H0.821533V25.4896H45.4471V25.0947Z" fill="#F6511D"/>
<path d="M45.8474 26.002H0.821533V26.3968H45.8474V26.002Z" fill="#F6511D"/>
<path d="M46.1032 26.9121H0.821533V27.307H46.1032V26.9121Z" fill="#F6511D"/>
<path d="M47.3821 27.8184H0.821533V28.2133H47.3821V27.8184Z" fill="#F6511D"/>
<path d="M132.902 0.790039L135.968 3.93376L134.873 5.05675H131.677L132.775 3.93376L129.706 0.790039H132.902Z" fill="#F6511D"/>
<path d="M137.726 0.790039L140.795 3.93376L139.697 5.05675H136.501L137.596 3.93376L134.53 0.790039H137.726Z" fill="#F6511D"/>
<path d="M142.553 0.790039L145.619 3.93376L144.521 5.05675H141.325L142.42 3.93376L139.354 0.790039H142.553Z" fill="#F6511D"/>
<path d="M147.377 0.790039L150.44 3.93376L149.345 5.05675H146.149L147.247 3.93376L144.178 0.790039H147.377Z" fill="#F6511D"/>
<path d="M152.201 0.790039L155.267 3.93376L154.172 5.05675H150.973L152.071 3.93376L149.005 0.790039H152.201Z" fill="#F6511D"/>
<path d="M157.025 0.790039L160.091 3.93376L158.993 5.05675H155.797L156.895 3.93376L153.829 0.790039H157.025Z" fill="#F6511D"/>
<path d="M6.84935 21.3184V4.90253H0.758423V0.944336H127.741L130.657 3.9338L129.712 4.90253H11.6673V21.3184H6.84935Z" fill="#F5F4F6"/>
<path d="M127.681 1.09855L127.837 1.25897L130.446 3.93376L129.652 4.74824H128.051H126.579H11.8177H11.5168V5.05675V21.1641H6.99675V5.05675V4.74824H6.69582H0.908845V1.09546H124.608H127.681M127.804 0.790039H124.608H0.60791V5.05982H6.69582V21.4757H11.8177V5.05982H126.576H128.048H129.772L130.867 3.93685L128.045 1.04302L127.804 0.790039Z" fill="#F5F4F6"/>
<path d="M20.888 8.1416H16.067V21.2996H20.888V8.1416Z" fill="#F5F4F6"/>
<path d="M20.7375 8.29582V21.1453H16.2174V8.29582H20.7375ZM21.0384 7.9873H15.9165V21.4538H21.0384V7.9873Z" fill="#F5F4F6"/>
<path d="M47.1113 21.3181V8.16016H62.1821V11.2977H51.9323V13.3308H62.1821V16.1382H51.9323V18.1682H62.1821V21.3181H47.1113Z" fill="#F5F4F6"/>
<path d="M62.0316 8.31437V11.1434H52.0797H51.7788V11.4519V13.1765V13.485H52.0797H62.0316V15.9839H52.0797H51.7788V16.2924V18.017V18.3255H52.0797H62.0316V21.1638H47.2617V8.31437H62.0316ZM62.3326 8.00586H46.9608V21.4723H62.3326V18.017H52.0797V16.2924H62.3326V13.1765H52.0797V11.4519H62.3326V8.00586Z" fill="#F5F4F6"/>
<path d="M85.1435 21.2965V13.7966L79.7869 21.2965H77.3794L72.0228 13.7966V21.2965H67.2018V8.1416H73.389L78.5831 14.9689L83.7863 8.1416H89.9645V21.2965H85.1435Z" fill="#F5F4F6"/>
<path d="M89.814 8.29582V21.1453H85.2939V14.2717V13.3276L84.7492 14.0896L79.7086 21.1484H77.4546L72.4139 14.0896L71.8692 13.3276V14.2717V21.1453H67.3492V8.29582H73.3137L78.3454 14.9103L78.5831 15.2219L78.8208 14.9103L83.8615 8.29582H89.814ZM90.1149 7.9873H83.714L78.5831 14.719L73.4612 7.9873H67.0513V21.4538H72.1732V14.2717L77.3041 21.4538H79.8651L84.996 14.2717V21.4538H90.1179V7.9873H90.1149Z" fill="#F5F4F6"/>
<path d="M107.018 21.3181L105.983 19.0136H99.2122L98.177 21.3181H92.7601L99.6455 8.16016H105.553L112.438 21.3181H107.018ZM100.557 16.0364H104.635L102.601 11.5384L100.557 16.0364Z" fill="#F5F4F6"/>
<path d="M105.463 8.31437L112.185 21.1638H107.115L106.161 19.0382L106.079 18.8593H105.887H99.3084H99.1158L99.0346 19.0382L98.0806 21.1638H93.0099L99.7327 8.31437H105.463ZM100.323 16.1906H100.795H104.4H104.873L104.674 15.7526L102.875 11.7759L102.604 11.1743L102.33 11.7759L100.521 15.7526L100.323 16.1906ZM105.643 8.00586H99.5552L92.5073 21.4723H98.2732L99.3084 19.1678H105.887L106.922 21.4723H112.688L105.643 8.00586ZM100.795 15.8821L102.604 11.9054L104.403 15.8821H100.795Z" fill="#F5F4F6"/>
<path d="M117.527 21.3181V12.1214H111.439V8.16016H128.436V12.1214H122.348V21.3181H117.527Z" fill="#F5F4F6"/>
<path d="M128.285 8.31437V11.9641H122.498H122.197V12.2726V21.1608H117.677V12.2726V11.9641H117.376H111.59V8.31437H128.285ZM128.586 8.00586H111.289V12.2726H117.376V21.4693H122.498V12.2726H128.586V8.00586Z" fill="#F5F4F6"/>
<path d="M137.693 8.1416H132.872V21.2996H137.693V8.1416Z" fill="#F5F4F6"/>
<path d="M137.542 8.29582V21.1453H133.022V8.29582H137.542ZM137.843 7.9873H132.721V21.4538H137.843V7.9873Z" fill="#F5F4F6"/>
<path d="M150.32 21.6266C146.868 21.6204 144.403 20.877 142.992 19.4239C141.996 18.3965 141.493 16.9774 141.499 15.2096V14.2285C141.484 9.93407 144.367 7.8362 150.32 7.81152C155.878 7.82386 158.752 9.65641 159.098 13.4141H154.115C153.519 11.9702 151.779 11.7821 150.317 11.7821C148.325 11.8098 146.293 12.1646 146.326 14.5648V14.8918C146.293 17.289 148.325 17.6438 150.317 17.6715C151.782 17.6715 153.528 17.4833 154.115 16.0272H159.095C158.755 19.7416 155.8 21.6266 150.32 21.6266Z" fill="#F5F4F6"/>
<path d="M150.32 7.96281C155.704 7.97515 158.523 9.70588 158.933 13.2568H154.214C153.549 11.8161 151.797 11.6248 150.317 11.6248C148.252 11.6557 146.146 12.0259 146.179 14.5588V14.8858C146.14 17.7642 149.068 17.8043 150.32 17.8228C151.8 17.8228 153.558 17.6315 154.214 16.1784H158.93C158.523 19.7387 155.701 21.4725 150.32 21.4725C146.91 21.4663 144.479 20.7382 143.097 19.3129C142.128 18.3133 141.641 16.9343 141.65 15.2066V14.2225C141.632 10.036 144.47 7.98749 150.32 7.96281ZM150.32 7.6543C145.394 7.67281 141.328 9.13823 141.349 14.2256V15.2066C141.328 20.3063 145.394 21.7687 150.32 21.7779C155.051 21.7779 158.939 20.4143 159.261 15.8668H154.012C153.543 17.1904 152.077 17.5112 150.317 17.5112C148.225 17.4804 146.447 17.0793 146.477 14.8858V14.5557C146.447 12.3406 148.225 11.9611 150.317 11.9302C152.077 11.9302 153.531 12.2419 154.012 13.5623H159.261C158.939 9.02718 155.051 7.66664 150.32 7.6543Z" fill="#F5F4F6"/>
<path d="M42.9886 28.0566L35.5224 18.0208H30.7255V21.3064H25.9045V8.14844H38.4625C39.7114 8.14844 40.9453 8.68526 41.845 9.62313C42.7509 10.5672 43.2414 11.795 43.2233 13.0815C43.2233 14.0626 42.9645 14.9634 42.4559 15.7532C41.9504 16.543 41.2763 17.1446 40.4457 17.5426L40.2742 17.6228L40.8068 18.3262H40.8279L41.8541 19.7083L43.0879 21.3342L43.2263 21.5532L48.0624 28.0566H42.9886ZM30.7255 14.3834H37.1204C37.4725 14.3834 37.7764 14.257 38.0172 14.0071C38.2669 13.751 38.3933 13.4425 38.3933 13.0877C38.3933 12.3689 37.8216 11.7827 37.1204 11.7827H30.7255V14.3834Z" fill="#F5F4F6"/>
<path d="M38.4625 7.99707V8.30558C39.6723 8.30558 40.867 8.82697 41.7397 9.73399C42.6184 10.6472 43.0939 11.838 43.0758 13.0875C43.0758 14.0377 42.8261 14.9077 42.3325 15.6728C41.845 16.4379 41.189 17.021 40.3855 17.4066L40.0424 17.5702L40.2741 17.8756L40.6473 18.3661L40.7376 18.4864H40.7556L41.7397 19.81L42.7598 21.1551H42.7418L43.1089 21.6518L45.2817 24.5734L47.7584 27.9053H43.0638L40.545 24.5209L35.8745 18.2427L36.377 17.8694H35.4471H30.8729H30.572V18.1779V21.1551H26.052V8.30558H38.4113H38.4595V7.99707M30.575 14.5375H30.8759H37.1203C37.5146 14.5375 37.8516 14.3956 38.1255 14.1179C38.4053 13.831 38.5468 13.4855 38.5468 13.0875C38.5468 12.2823 37.9088 11.6282 37.1233 11.6282H30.8759H30.575V11.9368V14.2321V14.5375ZM38.4625 7.99707C38.4444 7.99707 38.4294 7.99707 38.4113 7.99707H25.754V21.4636H30.8759V18.1779H35.4501L40.3072 24.706L42.9163 28.2138H48.3693L45.5224 24.3852L43.3497 21.4636H43.3768L41.9774 19.6187L40.9061 18.1779H40.885L40.5119 17.6874C41.3725 17.2771 42.0647 16.657 42.5823 15.8425C43.1089 15.0219 43.3738 14.0994 43.3738 13.0875C43.4159 10.3202 41.1468 7.99707 38.4625 7.99707ZM30.8759 14.229V11.9337H37.1203C37.7463 11.9337 38.2428 12.4458 38.2428 13.0844C38.2428 13.396 38.1345 13.6644 37.9118 13.8958C37.6981 14.1148 37.4333 14.2259 37.1203 14.2259H30.8759V14.229Z" fill="#F5F4F6"/>
<path d="M48.0201 24.3849L50.8971 28.2136L132.303 28.1549V24.3263L48.0201 24.3849ZM138.37 24.3232V28.1519L159.008 28.2105V24.3819L138.37 24.3232ZM134.497 28.1519H136.179V24.3232H134.497V28.1519Z" fill="#F6511D"/>
</g>
<defs>
<clipPath id="clip0_5424_6702">
<rect width="161" height="29" fill="white"/>
</clipPath>
</defs>
</svg>
