<svg width="25" height="24" viewBox="0 0 25 24" fill="none" xmlns="http://www.w3.org/2000/svg">
<path fill-rule="evenodd" clip-rule="evenodd" d="M12.3334 22C17.8562 22 22.3334 17.5228 22.3334 12C22.3334 6.47715 17.8562 2 12.3334 2C6.81053 2 2.33337 6.47715 2.33337 12C2.33337 17.5228 6.81053 22 12.3334 22ZM18.287 12.7499H15.2389C15.1009 13.2861 14.8183 13.7644 14.4353 14.1406L15.9595 16.7807C17.2142 15.8275 18.0823 14.3917 18.287 12.7499ZM14.6611 17.5318L13.1366 14.8913C12.881 14.9621 12.6116 15 12.3334 15C12.0551 15 11.7857 14.9621 11.5301 14.8912L10.0056 17.5317C10.7214 17.8333 11.5079 18 12.3334 18C13.1588 18 13.9453 17.8333 14.6611 17.5318ZM8.70717 16.7806L10.2314 14.1405C9.84838 13.7643 9.56585 13.2861 9.42785 12.7499H6.37978C6.58447 14.3917 7.45248 15.8275 8.70717 16.7806ZM18.2869 11.2499H15.2388C15.1008 10.7137 14.8183 10.2355 14.4352 9.85938L15.9595 7.21928C17.2142 8.1724 18.0822 9.60814 18.2869 11.2499ZM14.661 6.46822C13.9453 6.16668 13.1588 6 12.3334 6C11.5079 6 10.7214 6.16669 10.0056 6.46824L11.5301 9.10874C11.7858 9.03787 12.0552 9 12.3334 9C12.6116 9 12.8809 9.03787 13.1366 9.10873L14.661 6.46822ZM10.2315 9.85942L8.70722 7.21931C7.45257 8.17244 6.58456 9.60816 6.37981 11.2499H9.42792C9.56594 10.7137 9.84846 10.2356 10.2315 9.85942Z" fill="#212227"/>
</svg>
