<svg width="48" height="48" viewBox="0 0 48 48" fill="none" xmlns="http://www.w3.org/2000/svg">
<path fill-rule="evenodd" clip-rule="evenodd" d="M23 4C14.7157 4 8 10.8719 8 19.3488C8 23.8936 9.93205 27.9784 12.9972 30.7868C14.0188 31.7228 14.7756 32.4163 15.312 32.9195C15.5802 33.1711 15.7852 33.3676 15.9366 33.5185C16.012 33.5937 16.0697 33.6532 16.1127 33.6993C16.134 33.7221 16.15 33.7399 16.1616 33.7532C16.173 33.7662 16.1784 33.7729 16.1784 33.7729C16.6514 34.3702 16.7538 34.5243 16.8148 34.6639C16.8757 34.8035 16.9196 34.9844 17.039 35.7434C17.0861 36.0431 17.0909 36.5564 17.0909 37.9535L17.0909 38.0134C17.0909 38.8317 17.0909 39.5374 17.1421 40.1166C17.1964 40.729 17.3165 41.3354 17.639 41.907C17.998 42.5433 18.5145 43.0718 19.1364 43.4392C19.6949 43.7692 20.2876 43.8921 20.8861 43.9476C21.4521 44.0001 22.1418 44 22.9414 44H23.0586C23.8582 44 24.5479 44.0001 25.1139 43.9476C25.7124 43.8921 26.3051 43.7692 26.8636 43.4392C27.4855 43.0718 28.002 42.5433 28.361 41.907C28.6835 41.3354 28.8036 40.729 28.8579 40.1166C28.9091 39.5374 28.9091 38.8316 28.9091 38.0134V37.9535C28.9091 36.5564 28.9139 36.0431 28.961 35.7434C29.0804 34.9844 29.1243 34.8035 29.1852 34.6639C29.2462 34.5243 29.3486 34.3702 29.8216 33.7729C29.8216 33.7729 29.8265 33.7667 29.8384 33.7532C29.85 33.7399 29.866 33.7221 29.8873 33.6993C29.9303 33.6532 29.988 33.5937 30.0634 33.5185C30.2148 33.3676 30.4198 33.1711 30.688 32.9195C31.2244 32.4163 31.9812 31.7228 33.0028 30.7868C36.068 27.9784 38 23.8936 38 19.3488C38 10.8719 31.2843 4 23 4ZM26.1701 39.3488H19.8299C19.8358 39.5427 19.8448 39.7122 19.8583 39.8647C19.8954 40.2835 19.958 40.4356 20.0009 40.5116C20.1206 40.7237 20.2927 40.8999 20.5 41.0224C20.5743 41.0663 20.7229 41.1303 21.1323 41.1683C21.5604 41.208 22.1253 41.2093 23 41.2093C23.8747 41.2093 24.4396 41.208 24.8677 41.1683C25.2771 41.1303 25.4257 41.0663 25.5 41.0224C25.7073 40.8999 25.8794 40.7237 25.9991 40.5116C26.042 40.4356 26.1046 40.2835 26.1417 39.8647C26.1552 39.7122 26.1642 39.5427 26.1701 39.3488ZM25.2209 16.3529C25.8338 16.8008 25.9757 17.6723 25.538 18.2994L23.182 21.6744H25.9868C26.4976 21.6744 26.9655 21.9665 27.1993 22.4313C27.433 22.896 27.3933 23.4555 27.0964 23.8808L23.2003 29.4622C22.7626 30.0893 21.9109 30.2345 21.2981 29.7866C20.6852 29.3387 20.5433 28.4672 20.981 27.8401L23.337 24.4651H20.5322C20.0214 24.4651 19.5535 24.173 19.3197 23.7083C19.086 23.2435 19.1257 22.6841 19.4226 22.2587L23.3187 16.6773C23.7564 16.0503 24.6081 15.905 25.2209 16.3529Z" fill="white"/>
</svg>
