<svg width="48" height="48" viewBox="0 0 48 48" fill="none" xmlns="http://www.w3.org/2000/svg">
<path fill-rule="evenodd" clip-rule="evenodd" d="M19.1848 6.40054C18.6978 6.81561 18.4542 7.02315 18.1941 7.19748C17.5979 7.59708 16.9283 7.87443 16.2242 8.01345C15.917 8.07409 15.5981 8.09954 14.9602 8.15045C13.3574 8.27835 12.556 8.3423 11.8874 8.57846C10.341 9.12466 9.12466 10.341 8.57846 11.8874C8.3423 12.556 8.27835 13.3574 8.15045 14.9602C8.09954 15.5981 8.07409 15.917 8.01345 16.2242C7.87443 16.9283 7.59708 17.5979 7.19748 18.1941C7.02315 18.4542 6.81562 18.6977 6.40054 19.1848C5.35767 20.4086 4.83621 21.0205 4.53043 21.6602C3.82319 23.1399 3.82319 24.8601 4.53043 26.3398C4.83621 26.9795 5.35766 27.5914 6.40054 28.8152C6.81557 29.3022 7.02316 29.5458 7.19748 29.8059C7.59708 30.4021 7.87443 31.0717 8.01345 31.7758C8.07409 32.083 8.09954 32.4019 8.15045 33.0398C8.27835 34.6426 8.3423 35.444 8.57846 36.1126C9.12466 37.659 10.341 38.8753 11.8874 39.4215C12.556 39.6577 13.3574 39.7216 14.9602 39.8496C15.5981 39.9005 15.917 39.9259 16.2242 39.9866C16.9283 40.1256 17.5979 40.4029 18.1941 40.8025C18.4542 40.9768 18.6977 41.1844 19.1848 41.5995C20.4086 42.6423 21.0205 43.1638 21.6602 43.4696C23.1399 44.1768 24.8601 44.1768 26.3398 43.4696C26.9795 43.1638 27.5914 42.6423 28.8152 41.5995C29.3023 41.1844 29.5458 40.9768 29.8059 40.8025C30.4021 40.4029 31.0717 40.1256 31.7758 39.9866C32.083 39.9259 32.4019 39.9005 33.0398 39.8496C34.6426 39.7216 35.444 39.6577 36.1126 39.4215C37.659 38.8753 38.8753 37.659 39.4215 36.1126C39.6577 35.444 39.7216 34.6426 39.8496 33.0398C39.9005 32.4019 39.9259 32.083 39.9866 31.7758C40.1256 31.0717 40.4029 30.4021 40.8025 29.8059C40.9768 29.5458 41.1844 29.3023 41.5995 28.8152C42.6423 27.5914 43.1638 26.9795 43.4696 26.3398C44.1768 24.8601 44.1768 23.1399 43.4696 21.6602C43.1638 21.0205 42.6423 20.4086 41.5995 19.1848C41.1844 18.6977 40.9768 18.4542 40.8025 18.1941C40.4029 17.5979 40.1256 16.9283 39.9866 16.2242C39.9259 15.917 39.9005 15.5981 39.8496 14.9602C39.7216 13.3574 39.6577 12.556 39.4215 11.8874C38.8753 10.341 37.659 9.12466 36.1126 8.57846C35.444 8.3423 34.6426 8.27835 33.0398 8.15045C32.4019 8.09954 32.083 8.07409 31.7758 8.01345C31.0717 7.87443 30.4021 7.59708 29.8059 7.19748C29.5458 7.02315 29.3023 6.81562 28.8152 6.40054C27.5914 5.35766 26.9795 4.83621 26.3398 4.53043C24.8601 3.82319 23.1399 3.82319 21.6602 4.53043C21.0205 4.83621 20.4086 5.35767 19.1848 6.40054ZM32.747 19.7263C33.3826 19.0906 33.3826 18.06 32.747 17.4243C32.1113 16.7887 31.0807 16.7887 30.445 17.4243L20.7445 27.1248L17.5549 23.9352C16.9193 23.2995 15.8886 23.2995 15.253 23.9352C14.6173 24.5709 14.6173 25.6015 15.253 26.2372L19.5936 30.5777C20.2292 31.2134 21.2598 31.2134 21.8955 30.5777L32.747 19.7263Z" fill="#212227"/>
</svg>
