<svg width="48" height="48" viewBox="0 0 48 48" fill="none" xmlns="http://www.w3.org/2000/svg">
<path fill-rule="evenodd" clip-rule="evenodd" d="M24 44C35.0457 44 44 35.0457 44 24C44 12.9543 35.0457 4 24 4C12.9543 4 4 12.9543 4 24C4 35.0457 12.9543 44 24 44ZM35.9072 25.4997H29.811C29.535 26.5723 28.9699 27.5288 28.2038 28.2812L31.2523 33.5614C33.7617 31.655 35.4978 28.7834 35.9072 25.4997ZM28.6555 35.0635L25.6065 29.7825C25.0952 29.9243 24.5564 30 24 30C23.4435 30 22.9047 29.9242 22.3934 29.7825L19.3444 35.0635C20.776 35.6666 22.349 36 24 36C25.6509 36 27.2239 35.6666 28.6555 35.0635ZM16.7476 33.5613L19.7961 28.2811C19.03 27.5287 18.4649 26.5722 18.189 25.4997H12.0928C12.5022 28.7833 14.2382 31.6549 16.7476 33.5613ZM35.9071 22.4997H29.8109C29.5348 21.4274 28.9698 20.4711 28.2037 19.7188L31.2522 14.4386C33.7616 16.3448 35.4976 19.2163 35.9071 22.4997ZM28.6554 12.9364C27.2239 12.3334 25.6509 12 24 12C22.3491 12 20.7761 12.3334 19.3445 12.9365L22.3935 18.2175C22.9048 18.0757 23.4436 18 24 18C24.5564 18 25.0951 18.0757 25.6064 18.2175L28.6554 12.9364ZM19.7962 19.7188L16.7477 14.4386C14.2384 16.3449 12.5024 19.2163 12.0929 22.4997H18.1891C18.4651 21.4274 19.0302 20.4711 19.7962 19.7188Z" fill="white"/>
</svg>
