<svg width="48" height="48" viewBox="0 0 48 48" fill="none" xmlns="http://www.w3.org/2000/svg">
<path d="M28 8H20C12.4575 8 8.68629 8 6.34315 10.3431C4.65606 12.0302 4.18369 14.4576 4.05143 18.5H43.9486C43.8163 14.4576 43.3439 12.0302 41.6569 10.3431C39.3137 8 35.5425 8 28 8Z" fill="white"/>
<path fill-rule="evenodd" clip-rule="evenodd" d="M28 40H20C12.4575 40 8.68629 40 6.34315 37.6569C4 35.3137 4 31.5425 4 24C4 23.1161 4 22.2841 4.00377 21.5H43.9962C44 22.2841 44 23.1161 44 24C44 31.5425 44 35.3137 41.6569 37.6569C39.3137 40 35.5425 40 28 40ZM32.0895 24.5C32.9551 24.4999 33.7488 24.4998 34.3944 24.5866C35.1054 24.6822 35.8568 24.9071 36.4749 25.5251C37.0929 26.1432 37.3178 26.8946 37.4134 27.6056C37.5002 28.2512 37.5001 29.0449 37.5 29.9105V30.0895C37.5001 30.9551 37.5002 31.7488 37.4134 32.3944C37.3178 33.1054 37.0929 33.8568 36.4749 34.4749C35.8568 35.0929 35.1054 35.3178 34.3944 35.4134C33.7488 35.5002 32.9551 35.5001 32.0895 35.5L32 35.5L31.9105 35.5C31.0449 35.5001 30.2512 35.5002 29.6056 35.4134C28.8946 35.3178 28.1432 35.0929 27.5251 34.4749C26.9071 33.8568 26.6822 33.1054 26.5866 32.3944C26.4998 31.7488 26.4999 30.9551 26.5 30.0895L26.5 30L26.5 29.9105C26.4999 29.0449 26.4998 28.2512 26.5866 27.6056C26.6822 26.8946 26.9071 26.1432 27.5251 25.5251C28.1432 24.9071 28.8946 24.6822 29.6056 24.5866C30.2512 24.4998 31.0449 24.4999 31.9105 24.5H32.0895ZM10.5 27C10.5 26.1716 11.1716 25.5 12 25.5H16C16.8284 25.5 17.5 26.1716 17.5 27C17.5 27.8284 16.8284 28.5 16 28.5H12C11.1716 28.5 10.5 27.8284 10.5 27ZM10.5 33C10.5 32.1716 11.1716 31.5 12 31.5H20C20.8284 31.5 21.5 32.1716 21.5 33C21.5 33.8284 20.8284 34.5 20 34.5H12C11.1716 34.5 10.5 33.8284 10.5 33Z" fill="white"/>
<path d="M29.6466 27.6463L29.6513 27.6437C29.6552 27.6417 29.6618 27.6385 29.6719 27.6343C29.7155 27.6164 29.8122 27.5858 30.0053 27.5598C30.4268 27.5032 31.0148 27.5 32 27.5C32.9852 27.5 33.5732 27.5032 33.9947 27.5598C34.1878 27.5858 34.2845 27.6164 34.3281 27.6343C34.3382 27.6385 34.3448 27.6417 34.3487 27.6437L34.3535 27.6465L34.3563 27.6513C34.3583 27.6552 34.3615 27.6618 34.3657 27.6719C34.3836 27.7155 34.4142 27.8122 34.4402 28.0053C34.4968 28.4268 34.5 29.0148 34.5 30C34.5 30.9852 34.4968 31.5732 34.4402 31.9947C34.4142 32.1878 34.3836 32.2845 34.3657 32.3281C34.3615 32.3382 34.3583 32.3448 34.3563 32.3487L34.3535 32.3535L34.3487 32.3563C34.3448 32.3583 34.3382 32.3615 34.3281 32.3657C34.2845 32.3836 34.1878 32.4142 33.9947 32.4402C33.5732 32.4968 32.9852 32.5 32 32.5C31.0148 32.5 30.4268 32.4968 30.0053 32.4402C29.8122 32.4142 29.7155 32.3836 29.6719 32.3657C29.6618 32.3615 29.6552 32.3583 29.6513 32.3563L29.6465 32.3535L29.6437 32.3487C29.6417 32.3448 29.6385 32.3382 29.6343 32.3281C29.6164 32.2845 29.5858 32.1878 29.5598 31.9947C29.5032 31.5732 29.5 30.9852 29.5 30C29.5 29.0148 29.5032 28.4268 29.5598 28.0053C29.5858 27.8122 29.6164 27.7155 29.6343 27.6719C29.6385 27.6618 29.6417 27.6552 29.6437 27.6513L29.6466 27.6463Z" fill="white"/>
</svg>
