<svg width="20" height="20" viewBox="0 0 20 20" fill="none" xmlns="http://www.w3.org/2000/svg">
<path d="M15.8333 3.33398C14.6548 3.33398 14.0656 3.33398 13.6994 3.82214C13.3333 4.3103 13.3333 5.09597 13.3333 6.66732V13.334C13.3333 14.9053 13.3333 15.691 13.6994 16.1792C14.0656 16.6673 14.6548 16.6673 15.8333 16.6673C17.0118 16.6673 17.6011 16.6673 17.9672 16.1792C18.3333 15.691 18.3333 14.9053 18.3333 13.334V6.66732C18.3333 5.09597 18.3333 4.31029 17.9672 3.82214C17.6011 3.33398 17.0118 3.33398 15.8333 3.33398Z" fill="#464853"/>
<path d="M4.16667 3.33398C2.98816 3.33398 2.3989 3.33398 2.03279 3.82214C1.66667 4.3103 1.66667 5.09597 1.66667 6.66732V13.334C1.66667 14.9053 1.66667 15.691 2.03279 16.1792C2.39891 16.6673 2.98816 16.6673 4.16667 16.6673C5.34518 16.6673 5.93444 16.6673 6.30056 16.1792C6.66667 15.691 6.66667 14.9053 6.66667 13.334V6.66732C6.66667 5.09597 6.66667 4.31029 6.30056 3.82214C5.93444 3.33398 5.34518 3.33398 4.16667 3.33398Z" fill="#464853"/>
<path fill-rule="evenodd" clip-rule="evenodd" d="M10 19.166C9.44772 19.166 9 18.8797 9 18.5265L9 1.47222C9 1.11901 9.44772 0.832684 10 0.832684C10.5523 0.832684 11 1.11901 11 1.47222L11 18.5265C11 18.8797 10.5523 19.166 10 19.166Z" fill="#464853"/>
</svg>
