<svg width="18" height="18" viewBox="0 0 18 18" fill="none" xmlns="http://www.w3.org/2000/svg">
<path fill-rule="evenodd" clip-rule="evenodd" d="M9.00001 17.3327C13.6024 17.3327 17.3333 13.6017 17.3333 8.99935C17.3333 4.39698 13.6024 0.666016 9.00001 0.666016C4.39763 0.666016 0.666672 4.39698 0.666672 8.99935C0.666672 13.6017 4.39763 17.3327 9.00001 17.3327ZM12.3333 10.7039V8.62332C12.3333 6.83639 12.3333 5.94293 11.8452 5.38781C11.357 4.83268 10.5714 4.83268 9.00001 4.83268C7.42866 4.83268 6.64298 4.83268 6.15483 5.38781C5.66667 5.94293 5.66667 6.83639 5.66667 8.62332V10.7039C5.66667 11.9941 5.66667 12.6393 5.93856 12.9211C6.06823 13.0556 6.23191 13.14 6.40627 13.1625C6.77186 13.2096 7.1988 12.7847 8.05266 11.9351C8.43009 11.5596 8.6188 11.3718 8.83714 11.3223C8.94466 11.2979 9.05535 11.2979 9.16287 11.3223C9.38121 11.3718 9.56992 11.5596 9.94735 11.9351C10.8012 12.7847 11.2281 13.2096 11.5937 13.1625C11.7681 13.14 11.9318 13.0556 12.0614 12.9211C12.3333 12.6393 12.3333 11.9941 12.3333 10.7039Z" fill="#464853"/>
</svg>
