<svg width="15" height="18" viewBox="0 0 15 18" fill="none" xmlns="http://www.w3.org/2000/svg">
<path d="M15 8.99935C15 13.6017 13.2731 17.3327 11.1429 17.3327H4.71429C5.43633 16.8648 6.09384 16.0415 6.54681 15.0629C7.27499 13.4897 7.71429 11.3455 7.71429 8.99935C7.71429 6.6532 7.27499 4.50904 6.54681 2.93581C6.09384 1.95718 5.43633 1.13391 4.71429 0.666016H11.1429C13.2731 0.666016 15 4.39698 15 8.99935Z" fill="white"/>
<path fill-rule="evenodd" clip-rule="evenodd" d="M1.09198 3.27778C0.424153 4.72062 0 6.74313 0 8.99935C0 11.2556 0.424153 13.2781 1.09198 14.7209C1.77792 16.2029 2.63714 16.916 3.42857 16.916C4.22 16.916 5.07923 16.2029 5.76516 14.7209C6.43299 13.2781 6.85714 11.2556 6.85714 8.99935C6.85714 6.74313 6.43299 4.72062 5.76516 3.27778C5.07923 1.79582 4.22 1.08268 3.42857 1.08268C2.63714 1.08268 1.77792 1.79582 1.09198 3.27778ZM2.14286 8.99935C2.14286 11.7608 2.71849 13.9993 3.42857 13.9993C4.08422 13.9993 4.62525 12.0908 4.70434 9.62435H3.85714C3.5021 9.62435 3.21429 9.34453 3.21429 8.99935C3.21429 8.65417 3.5021 8.37435 3.85714 8.37435H4.70434C4.62525 5.9079 4.08422 3.99935 3.42857 3.99935C2.71849 3.99935 2.14286 6.23793 2.14286 8.99935Z" fill="white"/>
</svg>
